<?xml version="1.0" encoding="utf-8"?>
<svg xmlns="http://www.w3.org/2000/svg" viewBox="0 0 26 26" width="208" height="208">
  <path d="M10.5 0.15625C7.484375 0.15625 5.0625 2.226563 5.0625 6.1875C5.0625 8.773438 6.09375 11.410156 7.65625 13.03125C8.265625 14.652344 7.167969 15.257813 6.9375 15.34375C3.78125 16.5 0.09375 18.601563 0.09375 20.6875L0.09375 21.46875C0.09375 24.3125 5.507813 24.96875 10.53125 24.96875C11.632813 24.96875 12.738281 24.921875 13.8125 24.84375C12.492188 23.445313 11.6875 21.574219 11.6875 19.5C11.6875 17.710938 12.296875 16.066406 13.3125 14.75C13.160156 14.398438 13.101563 13.84375 13.375 13C14.929688 11.375 15.9375 8.761719 15.9375 6.1875C15.9375 2.226563 13.515625 0.15625 10.5 0.15625 Z M 19.5 13.1875C16.015625 13.1875 13.1875 16.011719 13.1875 19.5C13.1875 22.988281 16.011719 25.8125 19.5 25.8125C22.988281 25.8125 25.8125 22.988281 25.8125 19.5C25.8125 16.011719 22.984375 13.1875 19.5 13.1875 Z M 18.625 16L20.375 16L20.375 18.59375L22.96875 18.59375L22.96875 20.40625L20.375 20.40625L20.375 23L18.625 23L18.625 20.40625L16 20.40625L16 18.59375L18.625 18.59375Z" fill="#FFFFFF" />
</svg>