<?xml version="1.0" encoding="utf-8"?>
<svg xmlns="http://www.w3.org/2000/svg" viewBox="0 0 64 64" width="512" height="512">
  <path d="M5 6C3.347656 6 2 7.347656 2 9L2 41C2 42.652344 3.347656 44 5 44L12.144531 44C12.207031 45.070313 12.03125 47.335938 10.140625 50.484375C9.9375 50.828125 9.957031 51.261719 10.1875 51.582031C10.378906 51.847656 10.683594 52 11 52C11.070313 52 11.144531 51.992188 11.21875 51.976563C18.941406 50.261719 21.816406 45.738281 22.65625 44L30 44L30 49C30 50.652344 31.347656 52 33 52L45.234375 52C45.835938 53.839844 47.863281 58.132813 53.859375 58.988281C53.90625 58.996094 53.953125 59 54 59C54.304688 59 54.59375 58.859375 54.785156 58.617188C55.007813 58.335938 55.0625 57.960938 54.929688 57.628906C53.726563 54.625 53.691406 52.828125 53.78125 52L59 52C60.652344 52 62 50.652344 62 49L62 27C62 25.347656 60.652344 24 59 24L54 24L54 9C54 7.347656 52.652344 6 51 6 Z M 5 8L51 8C51.550781 8 52 8.449219 52 9L52 41C52 41.550781 51.550781 42 51 42L22 42C21.570313 42 21.1875 42.273438 21.050781 42.683594C21.035156 42.734375 19.472656 47.203125 12.953125 49.421875C14.78125 45.316406 13.988281 42.804688 13.949219 42.683594C13.8125 42.273438 13.429688 42 13 42L5 42C4.449219 42 4 41.550781 4 41L4 9C4 8.449219 4.449219 8 5 8 Z M 13 20C12.445313 20 12 20.449219 12 21C12 21.550781 12.445313 22 13 22L31 22C31.554688 22 32 21.550781 32 21C32 20.449219 31.554688 20 31 20 Z M 35 20C34.445313 20 34 20.449219 34 21C34 21.550781 34.445313 22 35 22L39 22C39.554688 22 40 21.550781 40 21C40 20.449219 39.554688 20 39 20 Z M 13 26C12.445313 26 12 26.449219 12 27C12 27.550781 12.445313 28 13 28L35 28C35.554688 28 36 27.550781 36 27C36 26.449219 35.554688 26 35 26 Z M 54 26L59 26C59.550781 26 60 26.449219 60 27L60 49C60 49.550781 59.550781 50 59 50L53 50C52.621094 50 52.277344 50.214844 52.105469 50.550781C51.996094 50.769531 51.191406 52.589844 52.449219 56.628906C47.800781 55.164063 47.019531 51.027344 46.984375 50.835938C46.90625 50.355469 46.488281 50 46 50L33 50C32.449219 50 32 49.550781 32 49L32 44L51 44C52.652344 44 54 42.652344 54 41 Z M 8 36C7.445313 36 7 36.449219 7 37L7 39C7 39.550781 7.445313 40 8 40C8.554688 40 9 39.550781 9 39L9 37C9 36.449219 8.554688 36 8 36 Z M 13 36C12.445313 36 12 36.449219 12 37L12 39C12 39.550781 12.445313 40 13 40C13.554688 40 14 39.550781 14 39L14 37C14 36.449219 13.554688 36 13 36 Z M 18 36C17.445313 36 17 36.449219 17 37L17 39C17 39.550781 17.445313 40 18 40C18.554688 40 19 39.550781 19 39L19 37C19 36.449219 18.554688 36 18 36 Z M 23 36C22.445313 36 22 36.449219 22 37L22 39C22 39.550781 22.445313 40 23 40C23.554688 40 24 39.550781 24 39L24 37C24 36.449219 23.554688 36 23 36 Z M 28 36C27.445313 36 27 36.449219 27 37L27 39C27 39.550781 27.445313 40 28 40C28.554688 40 29 39.550781 29 39L29 37C29 36.449219 28.554688 36 28 36 Z M 33 36C32.445313 36 32 36.449219 32 37L32 39C32 39.550781 32.445313 40 33 40C33.554688 40 34 39.550781 34 39L34 37C34 36.449219 33.554688 36 33 36 Z M 38 36C37.445313 36 37 36.449219 37 37L37 39C37 39.550781 37.445313 40 38 40C38.554688 40 39 39.550781 39 39L39 37C39 36.449219 38.554688 36 38 36 Z M 43 36C42.445313 36 42 36.449219 42 37L42 39C42 39.550781 42.445313 40 43 40C43.554688 40 44 39.550781 44 39L44 37C44 36.449219 43.554688 36 43 36 Z M 48 36C47.445313 36 47 36.449219 47 37L47 39C47 39.550781 47.445313 40 48 40C48.554688 40 49 39.550781 49 39L49 37C49 36.449219 48.554688 36 48 36Z" fill="#FFFFFF" />
</svg>