<?xml version="1.0" encoding="utf-8"?>
<svg xmlns="http://www.w3.org/2000/svg" viewBox="0 0 26 26" width="208" height="208">
  <path d="M20.09375 0.25C19.5 0.246094 18.917969 0.457031 18.46875 0.90625L17.46875 1.9375L24.0625 8.5625L25.0625 7.53125C25.964844 6.628906 25.972656 5.164063 25.0625 4.25L21.75 0.9375C21.292969 0.480469 20.6875 0.253906 20.09375 0.25 Z M 16.34375 2.84375L14.78125 4.34375L21.65625 11.21875L23.25 9.75 Z M 13.78125 5.4375L2.96875 16.15625C2.71875 16.285156 2.539063 16.511719 2.46875 16.78125L0.15625 24.625C0.0507813 24.96875 0.144531 25.347656 0.398438 25.601563C0.652344 25.855469 1.03125 25.949219 1.375 25.84375L9.21875 23.53125C9.582031 23.476563 9.882813 23.222656 10 22.875L20.65625 12.3125L19.1875 10.84375L8.25 21.8125L3.84375 23.09375L2.90625 22.15625L4.25 17.5625L15.09375 6.75 Z M 16.15625 7.84375L5.1875 18.84375L6.78125 19.1875L7 20.65625L18 9.6875Z" fill="#FFFFFF" />
</svg>